<svg xmlns="http://www.w3.org/2000/svg" width="134" height="60" viewBox="0 0 134 60">
  <g fill="none">
    <path fill="#3E2723" d="M71.22,39.28 C73.9,39.28 76.26,38.58 77.38,37.94 L77.38,31.12 L70.86,31.12 L70.86,34.14 L73.98,34.14 L73.98,35.94 C73.42,36.16 72.58,36.3 71.7,36.3 C68.82,36.3 66.46,35.06 66.46,32.06 C66.46,29.24 68.8,28 71.78,28 C73.56,28 75.54,28.52 76.6,29.42 L76.68,29.42 L76.68,26.16 C75.72,25.42 73.68,24.92 71.44,24.92 C66.86,24.92 62.82,27.4 62.82,32.1 C62.82,36.76 66.48,39.28 71.22,39.28 Z M81.56,27.62 C82.58,27.62 83.26,26.98 83.26,26 C83.26,24.82 82.4,24.34 81.58,24.34 C80.74,24.34 79.86,24.82 79.86,26 C79.86,27.04 80.6,27.62 81.56,27.62 Z M83.16,39 L83.16,29 L79.94,29 L79.94,39 L83.16,39 Z M89.04,39 L89.04,32.92 C89.52,32.12 90.58,31.6 91.58,31.6 C92.42,31.6 93,31.86 93.28,32.38 C93.44,32.64 93.52,33.26 93.52,33.88 L93.52,39 L96.72,39 L96.72,33.08 C96.72,32.12 96.66,31.48 96.48,30.9 C96.1,29.6 94.92,28.76 92.82,28.76 C91.14,28.76 89.6,29.5 88.96,30.64 L88.96,29 L85.84,29 L85.84,39 L89.04,39 Z M104.68,43.16 C107.46,43.16 109.24,42.28 110.12,41 C110.58,40.34 110.92,39.18 110.92,37.58 L110.92,29 L107.84,29 L107.84,30.14 C107.32,29.28 105.86,28.74 104.26,28.74 C101.86,28.74 98.72,30.12 98.72,34 C98.72,37.44 101.3,38.76 104.18,38.76 C105.92,38.76 107.3,38.02 107.84,37.12 L107.84,37.8 C107.84,38.68 107.68,39.28 107.24,39.7 C106.76,40.18 105.76,40.52 104.52,40.52 C102.82,40.52 101.08,40.04 100.04,39.24 L99.94,39.24 L99.94,42.12 C100.8,42.68 102.42,43.16 104.68,43.16 Z M104.96,36.2 C103.5,36.2 101.98,35.54 101.98,33.92 C101.98,32.02 103.52,31.34 105.02,31.34 C106.22,31.34 107.28,31.78 107.72,32.64 L107.72,34.92 C107.26,35.74 106.12,36.2 104.96,36.2 Z M119.28,39.26 C121.06,39.26 122.8,38.84 123.86,38.16 L123.86,35.6 L123.78,35.6 C122.6,36.38 121.2,36.7 119.78,36.7 C117.82,36.7 116.7,36.06 116.38,34.92 L124.26,34.92 C124.3,34.58 124.34,33.82 124.34,33.46 C124.28,30.44 122.36,28.72 118.98,28.72 C115.68,28.72 113,30.58 113,34.04 C113,37.3 115.34,39.26 119.28,39.26 Z M121.3,32.74 L116.36,32.74 C116.72,31.4 117.96,31.02 118.96,31.02 C120.3,31.02 121.3,31.58 121.3,32.64 L121.3,32.74 Z M129.6,39 L129.6,33.16 C129.9,32.22 130.88,31.7 132.32,31.7 C132.94,31.7 133.44,31.8 133.9,32.02 L133.98,32.02 L133.98,29.04 C133.66,28.84 133.18,28.76 132.62,28.76 C130.86,28.76 129.84,29.88 129.52,30.72 L129.52,29 L126.4,29 L126.4,39 L129.6,39 Z"/>
    <path fill="#613E35" d="M33.2743055,2.05528492 C32.00028,3.03435586 33.300306,6.69201713 31.8702774,9.47220916 C34.826908,5.63905404 32.7580094,1.92782097 36.724946,2.56329343 L36.9032353,2.18644348 C36.1362199,1.78188398 34.4889012,1.11685466 33.2743055,2.05713222" transform="matrix(-1 0 0 1 68.774 0)"/>
    <path fill="#F58937" d="M45.2904908,2.09038369 C45.2904908,2.09038369 39.2175122,-2.4355103 37.8617707,1.83176118 C36.5060293,6.09903265 33.3302515,8.25114143 30.8694879,9.65878683 C28.4050101,11.0645849 33.1482478,14.1384982 37.5051922,11.7480873 C38.4820689,11.2123692 39.1079385,10.5288669 39.5109466,9.78070887 C40.9149747,7.177858 40.1943889,4.49372576 41.4424138,3.57561584 C42.6347234,2.6999939 43.6951732,2.58915568 44.4473311,2.96600563 L44.7871951,2.27880866 L44.4473311,2.96600563 C44.7073363,3.09716419 44.8670538,3.2006132 44.8670538,3.2006132 L45.2886337,2.08853639 L45.2904908,2.09038369 Z" transform="matrix(-1 0 0 1 75.484 0)"/>
    <path fill="#613E35" d="M40.2573024,1.57868057 C40.2573024,1.57868057 36.8530914,2.25848832 35.517779,3.36871783 C34.1843237,4.47710003 33.2390191,5.68523663 31.9018495,7.77084248 C30.6946824,9.65509222 30.1932438,11.0516538 30.1932438,11.0516538 L40.2573024,1.57868057 Z" transform="matrix(-1 0 0 1 70.45 0)"/>
    <path fill="#D46E27" d="M36.9028302,54.4540535 C33.8719124,54.1732634 27.2770661,52.9780579 26.2389025,47.8684159 C24.8831611,41.1978024 34.7280724,41.4952183 34.7280724,41.4952183 L26.2389025,41.0518654 C24.8868754,44.395485 25.057736,48.8271665 25.4106002,52.431256 C25.6390333,52.6714055 25.8786096,52.8986238 26.1293289,53.1018272 C25.934325,53.1664829 25.7226064,53.2440696 25.5034592,53.325351 C25.6520336,54.694203 25.8117511,55.9041869 25.8990385,56.8426172 C26.3001894,56.707764 26.6679111,56.5156444 26.987346,56.3068991 C27.1266345,55.8672408 27.3662108,55.4515975 27.6893601,55.132014 C28.6402363,54.1898891 34.1746327,54.3247423 36.900973,54.4540535" transform="matrix(-1 0 0 1 62.063 0)"/>
    <path fill="#F58937" d="M40.8837176,36.7199383 C38.3820961,29.0296131 44.6537931,19.1576223 44.6835079,19.0578679 L44.6853651,19.0486314 C44.9397988,18.63853 45.1812322,18.2099555 45.4003794,17.762908 C50.3720504,7.67662999 45.251805,3.59963079 38.1722348,2.0959256 C32.2496877,0.839759105 31.1706661,1.88163837 28.0060313,5.09964137 C24.8432537,8.31949167 22.9916452,13.9408367 19.1751403,13.7302441 C14.5266187,13.4716216 11.1001215,14.2825879 15.354921,20.1219148 C17.6801104,23.3140556 21.751049,25.4532332 26.2194241,26.2235588 C26.1061361,27.9230782 25.7737009,30.7679259 24.794967,33.8307554 C23.4243682,38.1257364 21.5783312,50.1553779 21.1511798,53.0057674 C20.4435942,53.0205459 19.347858,53.1941924 19.1974264,54.1030658 C18.9708505,55.4626813 21.7566205,55.6769686 22.885786,55.5347262 C23.8088045,55.418346 23.6676588,54.3487572 23.7753752,52.7767018 L25.0698297,41.1276048 L23.9443786,56.4860876 C23.9443786,56.4860876 20.2485903,57.3339999 22.3583469,59.0501451 C24.4681034,60.7681375 28.0821757,60.047689 28.2326073,57.7570325 C28.2548934,57.4282124 28.2288929,56.9626919 28.1750347,56.397417 C28.0877472,55.4922382 27.9336013,54.3265896 27.7850269,53.0039201 L27.6958822,52.1412293 C27.3504468,48.6627565 27.1833006,44.3825539 28.5056127,41.1571617 L36.8183505,41.5838889 C36.8183505,41.5838889 27.1795862,41.2994041 28.5056127,47.7354101 C29.5233474,52.6677109 35.9807623,53.8222757 38.9448217,54.091982 C36.276054,53.9682127 30.8568026,53.8370541 29.9263555,54.7477748 C29.6106349,55.0562745 29.3766302,55.4571394 29.2391988,55.8820193 C28.8399051,57.1289492 29.2967714,58.5735407 31.0945217,58.4682444 C33.5032842,58.3241547 35.3103204,56.750252 35.3103204,56.750252 C35.3103204,56.750252 48.264151,58.3241547 50.0711872,54.7477748 C51.8782234,51.1695476 43.4447689,44.5876046 40.8837176,36.7199383" transform="matrix(-1 0 0 1 63.741 0)"/>
    <path fill="#613E35" d="M13.4184412,7.79116282 C13.4184412,7.79116282 16.0500653,2.66120052 18.9286944,5.69632045 C21.8054662,8.72959308 19.4747053,13.7099238 20.9530206,16.9999716 C22.4276215,20.2918668 22.0989007,22.4458228 19.1144124,22.0615837 C16.1317812,21.6736499 13.1472929,19.2813916 15.3201936,14.02766 C16.768794,10.5214776 16.8672245,6.5737897 14.0628827,8.236363 L13.4184412,7.79301012 L13.4184412,7.79116282 Z" transform="matrix(-1 0 0 1 35.225 0)"/>
    <path fill="#F58937" d="M13.4197152,8.09042601 C13.4197152,8.09042601 17.2269342,2.65196401 20.4677134,5.62427561 C23.7066354,8.59843452 21.08244,13.4753162 22.7446161,16.6988611 C24.4067922,19.922406 23.1903393,22.4439755 19.8325578,22.0671256 C16.4729191,21.6884283 13.4624303,18.7715358 15.8173346,13.5880017 C18.1685245,8.40446763 17.3030786,6.89706784 14.1458726,8.52638968 L13.4197152,8.09042601 L13.4197152,8.09042601 Z" transform="matrix(-1 0 0 1 36.903 0)"/>
    <path fill="#613E35" d="M35.2267828,13.4198971 C35.2267828,13.8558608 34.8516325,14.2105431 34.3873375,14.2105431 C33.9230424,14.2105431 33.5478921,13.8558608 33.5478921,13.4198971 C33.5478921,12.9839334 33.9248996,12.6310984 34.3873375,12.6310984 C34.8516325,12.6310984 35.2267828,12.9839334 35.2267828,13.4198971 M30.193825,11.8404525 C30.193825,12.2782634 29.8186746,12.6310984 29.3562368,12.6310984 C28.8919418,12.6310984 28.5167914,12.2782634 28.5167914,11.8422998 C28.5167914,11.4063361 28.8919418,11.0516538 29.3562368,11.0516538 C29.8186746,11.0516538 30.193825,11.4063361 30.193825,11.8422998 M37.9234082,11.3416805 C37.6206879,11.0682795 37.3476824,11.0664322 36.9799608,11.0516538 C36.9056736,11.0498065 36.86853,11.1809651 36.9502459,11.1994381 C37.4869709,11.3416805 37.8918362,12.0159463 38.1518414,12.4980926 C38.3004158,12.7696462 38.6718518,12.5867631 38.560421,12.2856526 C38.4211325,11.8977189 38.2168427,11.6076922 37.9234082,11.3435278 M31.8300006,6.825023 C30.9292682,5.97526331 29.4249524,6.25790077 28.626365,7.15753766 C28.3236447,7.50113614 28.7025094,8.07380028 29.0609451,7.83919271 C29.4472386,7.5842648 29.833532,7.34780993 30.2625406,7.21110946 C30.7491218,7.05593596 31.2449888,7.12059158 31.7408559,7.0799509 C31.8355721,7.07071438 31.9265739,6.91369357 31.8318577,6.825023" transform="matrix(-1 0 0 1 67.097 0)"/>
    <path fill="#F58937" d="M6.7092024,49.1412082 C6.70555098,49.1485974 6.86712564,49.1375136 6.95998465,49.1264297 C7.06955827,49.1134986 7.18284625,49.0931783 7.29427705,49.0691633 C7.52085301,49.0192861 7.74371462,48.9490886 7.95729032,48.860418 C8.38629891,48.6830769 8.77444953,48.4263017 9.10874194,48.1030235 C9.77732675,47.4509253 10.2156212,46.4792436 10.408768,45.3874871 C10.6112006,44.2938833 10.5814857,43.1005252 10.4477687,41.9108616 C10.3084802,40.7470603 10.0317604,39.4447112 9.88504319,38.1830028 C9.58418002,35.6466549 9.41517664,33.0327202 9.99833117,30.4815938 C10.2936228,29.2217327 10.8340622,27.9729554 11.7385089,27.021594 C12.6318124,26.0573015 13.8612656,25.5012631 15.0962903,25.2629609 C13.885409,25.6176432 12.7562435,26.2789779 12.0133715,27.2562016 C11.2593564,28.2223414 10.873063,29.4138523 10.7096311,30.616447 C10.3939105,33.043804 10.7857755,35.5265801 11.3132146,37.9354641 C11.5769342,39.1583791 11.9372271,40.2981655 12.2418046,41.6115984 C12.5203816,42.8991691 12.7060996,44.2421588 12.5983832,45.6534988 C12.4980955,47.0463658 12.0709441,48.5666967 11.0494951,49.8117794 C10.5480565,50.4269315 9.91290089,50.9552604 9.20902966,51.3376522 C8.85802263,51.5316191 8.49030099,51.6923345 8.11143626,51.8216458 C7.91828954,51.8863014 7.72514282,51.9435678 7.52456737,51.9897504 C7.30727731,52.0377803 7.15498855,52.0765737 6.83741076,52.1042833 L6.7092024,49.1412082 L6.7092024,49.1412082 Z" transform="matrix(-1 0 0 1 21.805 0)"/>
    <path fill="#C88776" d="M1.6768313,21.169336 C2.22098504,20.7389142 2.93971371,20.5043067 3.68258572,20.5264743 C4.43288645,20.5412527 5.16461538,20.8922404 5.69576887,21.3984017 C5.9632028,21.6514823 6.18420722,21.9433562 6.37549676,22.2610925 C6.5389286,22.5936071 6.67450275,22.9482894 6.70236045,23.3214448 C6.75807585,24.0659082 6.47021294,24.7955931 5.95948844,25.2611136 C6.23620826,24.6385723 6.31235264,23.9827795 6.18235004,23.3953369 C6.03563282,22.8134363 5.69019733,22.2943439 5.22961669,21.875006 C4.78946502,21.4445842 4.24531127,21.1490157 3.6287275,21.0381774 C3.01400091,20.9310338 2.34355892,20.9864529 1.67868848,21.1674887" transform="matrix(-1 0 0 1 8.386 0)"/>
    <path fill="#C88776" d="M2.69291104,18.9525716 C3.1887781,18.9562662 3.67350209,19.1077451 4.13036838,19.2943228 C4.57980594,19.5049154 4.99767145,19.7857055 5.34682129,20.1219148 C5.70339986,20.4544295 5.9968343,20.8423632 6.25312515,21.2617012 C6.47227239,21.6995121 6.65241885,22.1650327 6.69513399,22.6564155 C6.78799299,23.639181 6.41469981,24.6053208 5.76654398,25.2611136 C6.18440949,24.4483 6.30512619,23.5449685 6.14355153,22.7358495 C5.95783352,21.9267305 5.48425262,21.2025875 4.85281141,20.628076 C4.24737072,20.0369388 3.48592691,19.630532 2.63719564,19.4938316 C1.79217872,19.3663676 0.876588972,19.4513436 0,19.7432176 C0.75401509,19.2093468 1.71231998,18.9026944 2.69291104,18.9525716 Z" transform="matrix(-1 0 0 1 6.71 0)"/>
    <path fill="#182949" d="M24.5054197,28.5086735 C24.5054197,28.5086735 32.0381419,31.2242099 39.3071446,29.3251817 L39.6024362,27.8658118 C39.6024362,27.8658118 31.8524239,30.3282676 24.7357101,26.8424056 L24.5054197,28.5086735 Z" transform="matrix(-1 0 0 1 64.108 0)"/>
    <path fill="#BE6B30" d="M41.5972578,21.0769708 C41.5638285,20.4729025 40.6315242,20.4729025 40.5980949,21.0769708 C40.5850947,21.3355933 40.5832375,21.607147 40.7522409,21.8251288 C40.9361017,22.0652783 41.259251,22.0652783 41.444969,21.8251288 C41.6121152,21.607147 41.6121152,21.3355933 41.5972578,21.0788181 M40.887815,22.2407721 C40.3250895,22.2407721 40.3250895,23.5468158 40.887815,23.5468158 C42.0114089,23.5468158 42.0114089,22.2426194 40.887815,22.2426194 M44.2418821,22.2222991 C43.6810138,22.2222991 43.6810138,23.5652889 44.2418821,23.5652889 C45.3654761,23.5652889 45.3654761,22.2222991 44.2418821,22.2222991 M42.7765671,20.6761059 C41.6566875,20.6761059 41.6566875,21.9544401 42.7765671,21.9544401 C43.8945895,21.9544401 43.8945895,20.6761059 42.7765671,20.6761059 M44.2418821,17.5966507 C43.6810138,17.5966507 43.6810138,18.717964 44.2418821,18.717964 C45.3654761,18.717964 45.3654761,17.5966507 44.2418821,17.5966507 M45.9189157,20.6576329 C45.3580473,20.6576329 45.3580473,21.9729131 45.9189157,21.9729131 C47.0425096,21.9729131 47.0425096,20.6576329 45.9189157,20.6576329" transform="matrix(-1 0 0 1 87.227 0)"/>
    <path fill="#BE6B30" d="M40.7048828,17.5504681 C40.1421572,17.5504681 40.1421572,18.7641466 40.7048828,18.7641466 C41.8284767,18.7641466 41.8284767,17.5504681 40.7048828,17.5504681 M40.4950214,20.7278304 C39.9378674,20.7278304 39.9378674,21.9008682 40.4950214,21.9008682 C42.172055,21.9008682 42.172055,20.7278304 40.4950214,20.7278304" transform="matrix(-1 0 0 1 82.011 0)"/>
    <path fill="#613E35" d="M47.3848862,12.6551134 C44.4486846,12.9599185 45.185985,13.9796301 46.0941461,16.0947928 C46.9057337,17.9882791 49.2866385,17.3509593 51.2608209,16.8226305 C53.2368605,16.2943016 51.0156731,12.2801107 47.3848862,12.6551134" transform="matrix(-1 0 0 1 97.29 0)"/>
    <path fill="#F58937" d="M46.9680122,14.2123904 C47.2001597,14.1458874 49.2783441,15.3558713 49.5922076,16.2961489 C49.9079282,17.2382738 47.2781613,17.3361809 47.2781613,17.3361809 C47.2781613,17.3361809 50.6805151,17.640986 50.2923644,16.3626518 C49.906071,15.0880123 46.9680122,14.2123904 46.9680122,14.2123904" transform="matrix(-1 0 0 1 97.291 0)"/>
    <path fill="#613E35" d="M40.2573024,17.367585 C40.2573024,17.367585 42.8313539,20.9883002 45.741555,22.3571523 C48.6536133,23.7260043 50.3232181,23.0997683 50.3232181,23.0997683 L50.3232181,23.6114714 C50.3232181,23.6114714 47.5300194,24.010489 45.741555,22.9279691 C42.3522015,20.877462 40.2573024,17.367585 40.2573024,17.367585" transform="matrix(-1 0 0 1 90.58 0)"/>
  </g>
</svg>
